<mxfile host="app.diagrams.net" modified="2023-10-11T03:07:23.766Z" agent="Mozilla/5.0 (Windows NT 10.0; Win64; x64) AppleWebKit/537.36 (KHTML, like Gecko) Chrome/117.0.0.0 Safari/537.36" etag="u-1fAANLTVwhoStz59rG" version="22.0.4" type="github">
  <diagram name="第 1 页" id="amgBx_vb0f_O8mCsmPQ2">
    <mxGraphModel dx="1834" dy="749" grid="0" gridSize="10" guides="0" tooltips="1" connect="0" arrows="0" fold="1" page="0" pageScale="1" pageWidth="827" pageHeight="1169" math="0" shadow="0">
      <root>
        <mxCell id="0" />
        <mxCell id="1" parent="0" />
        <mxCell id="_whmAzXIN-G1b3rpepS_-1" value="&lt;font style=&quot;font-size: 14px;&quot;&gt;&lt;b&gt;地区筛选器&lt;/b&gt;&lt;/font&gt;" style="shape=offPageConnector;whiteSpace=wrap;html=1;fillColor=#e3c800;fontColor=#000000;strokeColor=#B09500;" vertex="1" parent="1">
          <mxGeometry x="140" y="140" width="110" height="60" as="geometry" />
        </mxCell>
        <mxCell id="_whmAzXIN-G1b3rpepS_-5" value="" style="line;strokeWidth=2;html=1;" vertex="1" parent="1">
          <mxGeometry x="85" y="320" width="400" height="10" as="geometry" />
        </mxCell>
        <mxCell id="_whmAzXIN-G1b3rpepS_-8" value="&lt;font style=&quot;font-size: 14px;&quot;&gt;&lt;b&gt;职位筛选器&lt;/b&gt;&lt;/font&gt;" style="shape=offPageConnector;whiteSpace=wrap;html=1;fillColor=#e3c800;fontColor=#000000;strokeColor=#B09500;" vertex="1" parent="1">
          <mxGeometry x="350" y="140" width="110" height="60" as="geometry" />
        </mxCell>
        <mxCell id="_whmAzXIN-G1b3rpepS_-9" value="&lt;font style=&quot;font-size: 14px;&quot;&gt;&lt;b&gt;列筛选器&lt;/b&gt;&lt;/font&gt;" style="shape=offPageConnector;whiteSpace=wrap;html=1;fillColor=#e3c800;fontColor=#000000;strokeColor=#B09500;" vertex="1" parent="1">
          <mxGeometry x="230" y="240" width="110" height="60" as="geometry" />
        </mxCell>
        <mxCell id="_whmAzXIN-G1b3rpepS_-10" value="&lt;font style=&quot;font-size: 14px;&quot;&gt;&lt;b&gt;地区筛选器&lt;/b&gt;&lt;/font&gt;" style="shape=offPageConnector;whiteSpace=wrap;html=1;fillColor=#e3c800;fontColor=#000000;strokeColor=#B09500;" vertex="1" parent="1">
          <mxGeometry x="140" y="400" width="110" height="60" as="geometry" />
        </mxCell>
        <mxCell id="_whmAzXIN-G1b3rpepS_-11" value="&lt;font style=&quot;font-size: 14px;&quot;&gt;&lt;b&gt;职位筛选器&lt;/b&gt;&lt;/font&gt;" style="shape=offPageConnector;whiteSpace=wrap;html=1;fillColor=#e3c800;fontColor=#000000;strokeColor=#B09500;" vertex="1" parent="1">
          <mxGeometry x="350" y="400" width="110" height="60" as="geometry" />
        </mxCell>
        <mxCell id="_whmAzXIN-G1b3rpepS_-12" value="&lt;font style=&quot;font-size: 24px;&quot;&gt;（分子）&lt;/font&gt;" style="text;html=1;align=center;verticalAlign=middle;resizable=0;points=[];autosize=1;strokeColor=none;fillColor=none;" vertex="1" parent="1">
          <mxGeometry x="-5" y="160" width="120" height="40" as="geometry" />
        </mxCell>
        <mxCell id="_whmAzXIN-G1b3rpepS_-13" value="&lt;font style=&quot;font-size: 24px;&quot;&gt;（分母）&lt;/font&gt;" style="text;html=1;align=center;verticalAlign=middle;resizable=0;points=[];autosize=1;strokeColor=none;fillColor=none;" vertex="1" parent="1">
          <mxGeometry x="-5" y="405" width="120" height="40" as="geometry" />
        </mxCell>
        <mxCell id="_whmAzXIN-G1b3rpepS_-14" value="" style="shape=singleArrow;whiteSpace=wrap;html=1;fillColor=#e3c800;fontColor=#000000;strokeColor=#B09500;" vertex="1" parent="1">
          <mxGeometry x="500" y="300" width="70" height="45" as="geometry" />
        </mxCell>
        <mxCell id="_whmAzXIN-G1b3rpepS_-16" value="&lt;font style=&quot;font-size: 14px;&quot;&gt;&lt;b&gt;&amp;nbsp;地区 = 北京&amp;nbsp; 职位 = p1&lt;br&gt;薪资 = 5000&lt;/b&gt;&lt;/font&gt;" style="text;html=1;align=center;verticalAlign=middle;resizable=0;points=[];autosize=1;strokeColor=none;fillColor=none;" vertex="1" parent="1">
          <mxGeometry x="550" y="260" width="170" height="50" as="geometry" />
        </mxCell>
        <mxCell id="_whmAzXIN-G1b3rpepS_-17" value="&lt;font style=&quot;font-size: 14px;&quot;&gt;&lt;b&gt;地区 = 北京&amp;nbsp; 职位 = p1&lt;/b&gt;&lt;/font&gt;" style="text;html=1;align=center;verticalAlign=middle;resizable=0;points=[];autosize=1;strokeColor=none;fillColor=none;" vertex="1" parent="1">
          <mxGeometry x="555" y="345" width="160" height="30" as="geometry" />
        </mxCell>
        <mxCell id="_whmAzXIN-G1b3rpepS_-19" value="" style="line;strokeWidth=2;html=1;" vertex="1" parent="1">
          <mxGeometry x="590" y="320" width="90" height="10" as="geometry" />
        </mxCell>
        <mxCell id="_whmAzXIN-G1b3rpepS_-20" value="&lt;font style=&quot;font-size: 18px;&quot;&gt;=&lt;/font&gt;" style="text;html=1;align=center;verticalAlign=middle;resizable=0;points=[];autosize=1;strokeColor=none;fillColor=none;" vertex="1" parent="1">
          <mxGeometry x="695" y="303" width="30" height="40" as="geometry" />
        </mxCell>
        <mxCell id="_whmAzXIN-G1b3rpepS_-22" value="" style="line;strokeWidth=2;html=1;" vertex="1" parent="1">
          <mxGeometry x="730" y="318" width="70" height="10" as="geometry" />
        </mxCell>
        <mxCell id="_whmAzXIN-G1b3rpepS_-24" value="" style="shape=curlyBracket;whiteSpace=wrap;html=1;rounded=1;flipH=1;labelPosition=right;verticalLabelPosition=middle;align=left;verticalAlign=middle;" vertex="1" parent="1">
          <mxGeometry x="492.5" y="153" width="20" height="120" as="geometry" />
        </mxCell>
        <mxCell id="_whmAzXIN-G1b3rpepS_-25" value="&lt;b&gt;COUNT&lt;/b&gt;" style="text;html=1;align=center;verticalAlign=middle;resizable=0;points=[];autosize=1;strokeColor=none;fillColor=none;" vertex="1" parent="1">
          <mxGeometry x="510" y="200" width="70" height="30" as="geometry" />
        </mxCell>
        <mxCell id="_whmAzXIN-G1b3rpepS_-27" value="" style="shape=curlyBracket;whiteSpace=wrap;html=1;rounded=1;flipH=1;labelPosition=right;verticalLabelPosition=middle;align=left;verticalAlign=middle;" vertex="1" parent="1">
          <mxGeometry x="495" y="360" width="15" height="120" as="geometry" />
        </mxCell>
        <mxCell id="_whmAzXIN-G1b3rpepS_-28" value="&lt;b&gt;COUNT&lt;/b&gt;" style="text;html=1;align=center;verticalAlign=middle;resizable=0;points=[];autosize=1;strokeColor=none;fillColor=none;" vertex="1" parent="1">
          <mxGeometry x="510" y="405" width="70" height="30" as="geometry" />
        </mxCell>
        <mxCell id="_whmAzXIN-G1b3rpepS_-32" value="&lt;b&gt;&amp;nbsp; &amp;nbsp; &amp;nbsp; &amp;nbsp; &amp;nbsp; &amp;nbsp; &amp;nbsp; COUNT = 2&lt;/b&gt;" style="text;html=1;align=center;verticalAlign=middle;resizable=0;points=[];autosize=1;strokeColor=none;fillColor=none;" vertex="1" parent="1">
          <mxGeometry x="680" y="275" width="130" height="30" as="geometry" />
        </mxCell>
        <mxCell id="_whmAzXIN-G1b3rpepS_-33" value="" style="shape=curlyBracket;whiteSpace=wrap;html=1;rounded=1;flipH=1;labelPosition=right;verticalLabelPosition=middle;align=left;verticalAlign=middle;" vertex="1" parent="1">
          <mxGeometry x="720" y="270" width="10" height="40" as="geometry" />
        </mxCell>
        <mxCell id="_whmAzXIN-G1b3rpepS_-36" value="" style="shape=curlyBracket;whiteSpace=wrap;html=1;rounded=1;flipH=1;labelPosition=right;verticalLabelPosition=middle;align=left;verticalAlign=middle;" vertex="1" parent="1">
          <mxGeometry x="720" y="345" width="10" height="40" as="geometry" />
        </mxCell>
        <mxCell id="_whmAzXIN-G1b3rpepS_-37" value="&lt;b&gt;&amp;nbsp; &amp;nbsp; &amp;nbsp;COUNT = 3&lt;/b&gt;" style="text;html=1;align=center;verticalAlign=middle;resizable=0;points=[];autosize=1;strokeColor=none;fillColor=none;" vertex="1" parent="1">
          <mxGeometry x="710" y="348" width="100" height="30" as="geometry" />
        </mxCell>
        <mxCell id="_whmAzXIN-G1b3rpepS_-39" value="&lt;font style=&quot;font-size: 12px;&quot;&gt;&lt;b style=&quot;&quot;&gt;(统计符合条件的记录数)&lt;/b&gt;&lt;/font&gt;" style="text;html=1;align=center;verticalAlign=middle;resizable=0;points=[];autosize=1;strokeColor=none;fillColor=none;" vertex="1" parent="1">
          <mxGeometry x="590" y="198" width="150" height="30" as="geometry" />
        </mxCell>
        <mxCell id="_whmAzXIN-G1b3rpepS_-44" value="&lt;b style=&quot;border-color: var(--border-color); color: rgb(0, 0, 0); font-family: Helvetica; font-style: normal; font-variant-ligatures: normal; font-variant-caps: normal; letter-spacing: normal; orphans: 2; text-align: center; text-indent: 0px; text-transform: none; widows: 2; word-spacing: 0px; -webkit-text-stroke-width: 0px; background-color: rgb(251, 251, 251); text-decoration-thickness: initial; text-decoration-style: initial; text-decoration-color: initial;&quot;&gt;&lt;font style=&quot;font-size: 12px;&quot;&gt;(统计符合条件的记录数)&lt;/font&gt;&lt;/b&gt;" style="text;whiteSpace=wrap;html=1;" vertex="1" parent="1">
          <mxGeometry x="600" y="405" width="170" height="40" as="geometry" />
        </mxCell>
        <mxCell id="_whmAzXIN-G1b3rpepS_-49" value="" style="edgeStyle=none;orthogonalLoop=1;jettySize=auto;html=1;rounded=0;" edge="1" parent="1">
          <mxGeometry width="100" relative="1" as="geometry">
            <mxPoint x="570" y="212.5" as="sourcePoint" />
            <mxPoint x="590" y="212.5" as="targetPoint" />
            <Array as="points" />
          </mxGeometry>
        </mxCell>
        <mxCell id="_whmAzXIN-G1b3rpepS_-50" value="" style="edgeStyle=none;orthogonalLoop=1;jettySize=auto;html=1;rounded=0;" edge="1" parent="1">
          <mxGeometry width="100" relative="1" as="geometry">
            <mxPoint x="570" y="419.5" as="sourcePoint" />
            <mxPoint x="590" y="419.5" as="targetPoint" />
            <Array as="points" />
          </mxGeometry>
        </mxCell>
      </root>
    </mxGraphModel>
  </diagram>
</mxfile>
